<svg xmlns="http://www.w3.org/2000/svg" width="720" height="220" viewBox="0 0 720 220" role="img" aria-labelledby="title desc">
  <title id="title">TxRiskAgent logo option 1, Shield Signal</title>
  <desc id="desc">A shield mark with transaction nodes and a TxRiskAgent wordmark.</desc>
  <defs>
    <linearGradient id="shieldGradient" x1="44" y1="32" x2="178" y2="188" gradientUnits="userSpaceOnUse">
      <stop offset="0" stop-color="#36e3c5"/>
      <stop offset="0.52" stop-color="#1482ff"/>
      <stop offset="1" stop-color="#2442a7"/>
    </linearGradient>
    <linearGradient id="signalGradient" x1="67" y1="58" x2="151" y2="151" gradientUnits="userSpaceOnUse">
      <stop offset="0" stop-color="#ffffff"/>
      <stop offset="1" stop-color="#c9fff4"/>
    </linearGradient>
    <filter id="softShadow" x="-15%" y="-15%" width="130%" height="130%">
      <feDropShadow dx="0" dy="10" stdDeviation="12" flood-color="#0d2740" flood-opacity="0.16"/>
    </filter>
  </defs>
  <g filter="url(#softShadow)">
    <path d="M111 24 178 52v55c0 43-26 76-67 91-41-15-67-48-67-91V52l67-28Z" fill="url(#shieldGradient)"/>
    <path d="M111 42 161 63v43c0 33-19 58-50 70-31-12-50-37-50-70V63l50-21Z" fill="none" stroke="#ffffff" stroke-opacity="0.72" stroke-width="5"/>
    <path d="M80 118c22-37 47-37 70 0" fill="none" stroke="url(#signalGradient)" stroke-width="10" stroke-linecap="round"/>
    <path d="M95 118c11-18 21-18 32 0" fill="none" stroke="#ffffff" stroke-width="9" stroke-linecap="round"/>
    <circle cx="80" cy="118" r="10" fill="#ffffff"/>
    <circle cx="150" cy="118" r="10" fill="#ffffff"/>
    <circle cx="111" cy="118" r="12" fill="#102b60"/>
    <path d="M100 90h22l-10 23h18l-29 35 8-27H93l7-31Z" fill="#ffffff"/>
  </g>
  <g fill="#111827">
    <text x="230" y="105" font-family="Inter, ui-sans-serif, system-ui, -apple-system, BlinkMacSystemFont, Segoe UI, sans-serif" font-size="56" font-weight="800" letter-spacing="0">TxRiskAgent</text>
    <text x="233" y="144" font-family="Inter, ui-sans-serif, system-ui, -apple-system, BlinkMacSystemFont, Segoe UI, sans-serif" font-size="21" font-weight="650" letter-spacing="2.2" fill="#3b556f">TRANSACTION RISK DEFENSE</text>
  </g>
</svg>
